# xmcd CD database file
#
# Track frame offsets:
#	150
#	24433
#	32921
#	58214
#	82322
#	111666
#	139605
#	171908
#	201217
#	229784
#
# Disc length: 3115 seconds
#
# Revision: 0
# Processed by: cddbd v1.5.2PL0 Copyright (c) Steve Scherf et al.
# Submitted via: CDex 1.51
#
DISCID=920c290a
DTITLE=Peter Edwards - Safe and Sound
DYEAR=2013
DGENRE=Jazz
TTITLE0=Triple Threat
TTITLE1=Hustle Bustle
TTITLE2=Safe and Sound
TTITLE3=Meet you at el Malecón
TTITLE4=Desdemona's Tears
TTITLE5=I Mean You
TTITLE6=Mystic Musings
TTITLE7=Southern African Sunrise
TTITLE8=Playtime
TTITLE9=Finishing Touches
EXTD=YEAR: 2013
EXTT0=
EXTT1=
EXTT2=
EXTT3=
EXTT4=
EXTT5=
EXTT6=
EXTT7=
EXTT8=
EXTT9=
PLAYORDER=
